-
http:// www. Speed. Cd       
http:// www. Speed. Cd       the fast  and The Hottest Private Tracker on the net

Please Seed back to make the speed Faster!!!

and don't forget to visit      ...... www. Speed. Cd..........
-[img]http://img535.imageshack.us/img535/8654/bigmommaslikefatherlikes.jpg[/img]

[color=blue][size=5][b]Big Mommas 3 2011 R5 DVDRip XVID AC3 HQ Hive-CM8[/b][/size][/color]


[b]Thx Hive

CM8 Doing It Right The First Time :D

Sources
Video: Russian R5 DVD-9
Dom.Bolshoi.Mamochki.3.2011.DVD9
Audio: Center from iNKs 5.1 Track
thx iNK


Encode:
better late than never but the R5 was not the greatest.not that sharp, has noise, 
a bit too bright-you can see that at brown/black colours in relation.
doing the normal stuff was not working. i tried a couple different settings, 
finally found a way through for the rgb and sharpness/denoise relation.
Also worked a lot on the audio, beside synchronizing the center with the russian tracks 
i cleaned the line up to my liking.

Video: 720x304 @bitrate 1800 2pass
Audio: English AC3 5.1 @448
Sample: yes included[/b]


[url]http://www.imdb.com/title/tt1464174/[/url]


General
Complete name                    : Big.Mommas.3.2011.R5.DVDRip.XVID.AC3.HQ.Hive-CM8.avi
Format                           : AVI
Format/Info                      : Audio Video Interleave
File size                        : 1.62 GiB
Duration                         : 1h 42mn
Overall bit rate                 : 2 255 Kbps
Writing application              : Nandub v1.0rc2
Writing library                  : Nandub build 1853/release

Video
ID                               : 0
Format                           : MPEG-4 Visual
Format profile                   : Advanced Simple@L5
Format settings, BVOP            : Yes
Format settings, QPel            : Yes
Format settings, GMC             : No warppoints
Format settings, Matrix          : Default (H.263)
Muxing mode                      : Packed bitstream
Codec ID                         : XVID
Codec ID/Hint                    : XviD
Duration                         : 1h 42mn
Bit rate                         : 1 797 Kbps
Width                            : 720 pixels
Height                           : 304 pixels
Display aspect ratio             : 2.35:1
Frame rate                       : 25.000 fps
Color space                      : YUV
Chroma subsampling               : 4:2:0
Bit depth                        : 8 bits
Scan type                        : Progressive
Bits/(Pixel*Frame)               : 0.328
Stream size                      : 1.29 GiB (80%)
Writing library                  : XviD 1.2.1 (UTC 2008-12-04)

Audio
ID                               : 1
Format                           : AC-3
Format/Info                      : Audio Coding 3
Mode extension                   : CM (complete main)
Codec ID                         : 2000
Duration                         : 1h 42mn
Bit rate mode                    : Constant
Bit rate                         : 448 Kbps
Channel(s)                       : 6 channels
Channel positions                : Front: L C R, Side: L R, LFE
Sampling rate                    : 48.0 KHz
Bit depth                        : 16 bits
Stream size                      : 330 MiB (20%)
Alignment                        : Split accross interleaves
Interleave, duration             : 40 ms (1.00 video frame)
Interleave, preload duration     : 500 ms



Martin Lawrence ... Malcolm / Big Momma
Brandon T. Jackson ... Trent / Charmaine
Jessica Lucas        ... Haley
Michelle Ang        ... Mia
Portia Doubleday ... Jasmine
Emily Rios         ... Isabelle



FBI agent Malcolm Turner and his stepson Trent go undercover at an all-girls 
performing arts school after Trent witnesses a murder. 


[img]http://img200.imageshack.us/img200/3364/bbibibibii.png[/img]
[img]http://img834.imageshack.us/img834/6235/bbibibii.png[/img]
[img]http://img859.imageshack.us/img859/1300/bbibii.png[/img]
[img]http://img813.imageshack.us/img813/4089/bbii.png[/img]
[img]http://img52.imageshack.us/img52/7646/35773364.png[/img]
[img]http://img812.imageshack.us/img812/2640/bibbibibibibibii.png[/img]
[img]http://img402.imageshack.us/img402/2626/bibbibibibibii.png[/img]
[img]http://img822.imageshack.us/img822/3890/bibbibibibii.png[/img]
[img]http://img38.imageshack.us/img38/5021/bibiv.png[/img]
[img]http://img101.imageshack.us/img101/8239/bibibbibibibibibibii.png[/img]
[img]http://img823.imageshack.us/img823/4554/bibibbibibibibibii.png[/img]
 




Greetz

iNK,LUSi,,MAGNET,CLASSiFiED,THC,LEGi0N,T0XiC,IMAGiNE,ViSiON,WBZ,FLAWL3SS,NOVA
Vik,Rapeseed,D2U,SAFC,goldadvance,MEMORY100,KaN1vE,Unevano,Pinnz,Wayne,Mr Hive
and all P2P groups 
Great Work Guys :D

CM8@hushmail.com